<?xml version="1.0" encoding="utf-8"?>
<!-- Generator: Adobe Illustrator 25.2.3, SVG Export Plug-In . SVG Version: 6.00 Build 0)  -->
<svg version="1.1" id="Layer_1" xmlns="http://www.w3.org/2000/svg" xmlns:xlink="http://www.w3.org/1999/xlink" x="0px" y="0px"
	 viewBox="0 0 512 512" style="enable-background:new 0 0 512 512;" xml:space="preserve">
<style type="text/css">
	.st0{fill:#351E15;}
</style>
<g id="outline">
	<path class="st0" d="M497.2,210.2c-3.2-16.2-14.8-32.4-34-37.8c9.8-17.5,6.5-37.1-2.7-50.8s-26-24.3-45.9-21.9
		c2.4-19.9-8.2-36.8-21.9-45.9s-33.3-12.5-50.8-2.7c-5.4-19.3-21.7-30.8-37.8-34s-35.5,1.2-48,17c-12.4-15.7-31.8-20.2-48-17
		s-32.4,14.8-37.8,34c-17.5-9.8-37.1-6.5-50.8,2.7s-24.3,26-21.9,45.9c-19.9-2.3-36.8,8.2-45.9,21.9s-12.5,33.3-2.7,50.8
		C29.6,177.8,18,194,14.8,210.2s1.2,35.6,17,48c-15.7,12.4-20.2,31.8-17,48s14.8,32.4,34,37.8c-9.8,17.5-6.5,37.1,2.7,50.8
		s26,24.3,45.9,21.9c-2.4,19.9,8.2,36.8,21.9,45.9s33.3,12.5,50.8,2.7c5.4,19.3,21.7,30.8,37.8,34c3.3,0.7,6.7,1,10,1
		c13.6,0,28-5.4,38-18c12.4,15.7,31.8,20.2,48,17s32.4-14.8,37.8-34c17.5,9.8,37.1,6.5,50.8-2.7s24.3-26,21.9-45.9
		c1.8,0.2,3.7,0.3,5.6,0.3c17.5,0,32.1-9.8,40.4-22.2c9.1-13.7,12.5-33.3,2.7-50.8c19.3-5.4,30.8-21.7,34.1-37.8s-1.2-35.6-17-48
		C495.9,245.8,500.4,226.4,497.2,210.2z M461.2,250.8c-4.1,1.7-6,6.4-4.3,10.5c0.8,2,2.4,3.5,4.4,4.3c18.9,7.7,22.7,24.9,20.2,37.4
		c-2.5,12.4-12.5,26.9-32.7,26.9h-0.3c-4.4,0-8,3.6-8,8c0,2.1,0.9,4.2,2.4,5.7c14.5,14.3,11.4,31.7,4.3,42.3s-22,20.1-40.7,12.2
		c-4.1-1.7-8.8,0.2-10.5,4.3c-0.8,2-0.8,4.2,0,6.2c7.9,18.8-1.6,33.7-12.2,40.7s-28,10.2-42.3-4.3c0,0-0.1-0.1-0.1-0.1
		c-3.2-3.1-8.2-3-11.3,0.2c-1.5,1.5-2.3,3.5-2.3,5.6c0.1,20.4-14.4,30.5-26.9,33s-29.8-1.3-37.5-20.2c-1.2-3-4.2-4.9-7.4-4.9h0
		c-3.3,0-6.2,2-7.4,5c-7.7,18.9-24.9,22.7-37.4,20.2s-27-12.6-26.9-32.9c0.1-4.4-3.4-8.1-7.9-8.1c-2.1,0-4.2,0.8-5.7,2.3
		c0,0-0.1,0.1-0.1,0.1c-14.3,14.5-31.7,11.4-42.3,4.3s-20.1-22-12.2-40.8c1.7-4.1-0.3-8.8-4.4-10.5c-2-0.8-4.2-0.8-6.2,0
		c-18.8,7.9-33.7-1.6-40.7-12.2s-10.2-28,4.3-42.3c3.2-3.1,3.2-8.2,0.1-11.3c-1.5-1.5-3.6-2.4-5.7-2.4h-0.4
		C43,329.9,33,315.4,30.5,303c-2.5-12.5,1.3-29.8,20.3-37.5c4.1-1.7,6-6.4,4.3-10.5c-0.8-2-2.4-3.5-4.4-4.3
		c-18.9-7.7-22.7-24.9-20.2-37.4c2.5-12.4,12.5-26.9,32.7-26.9h0.3c4.4,0,8-3.6,8-8c0-2.1-0.9-4.2-2.4-5.7
		c-14.5-14.3-11.4-31.7-4.3-42.3s22-20.1,40.7-12.2c4.1,1.7,8.8-0.2,10.5-4.3c0.8-2,0.8-4.2,0-6.2c-7.9-18.8,1.6-33.7,12.2-40.7
		s28-10.2,42.3,4.3l0.1,0.1c3.2,3.1,8.2,3,11.3-0.2c1.5-1.5,2.3-3.5,2.3-5.6c-0.1-20.4,14.4-30.5,26.9-33s29.8,1.3,37.4,20.1l0,0
		c1.2,3,4.1,5,7.4,5h0c3.3,0,6.2-2,7.4-5c7.7-18.9,24.9-22.7,37.4-20.2s27,12.6,26.9,32.9c-0.1,4.4,3.4,8.1,7.9,8.1
		c2.1,0,4.2-0.8,5.7-2.3c0,0,0.1-0.1,0.1-0.1c14.3-14.5,31.7-11.4,42.3-4.3s20.1,22,12.2,40.8c-1.7,4.1,0.2,8.8,4.3,10.5
		c2,0.8,4.2,0.8,6.2,0c18.8-7.9,33.7,1.6,40.7,12.2s10.2,28-4.3,42.3c-3.2,3.1-3.2,8.2-0.1,11.3c1.5,1.5,3.6,2.4,5.7,2.4
		c0.1,0,0.2,0,0.4,0c20.2,0,30.2,14.4,32.7,26.9C484,225.8,480.2,243.1,461.2,250.8z"/>
	<path class="st0" d="M408,232H295.2c-14.7,0-27.5-10-31-24.2L264,207v-31c0-4.4-3.6-8-8-8h-13.7c-18.9,0-34.3,15.4-34.3,34.3V232
		h-47.5c-12.9-0.1-23.7,9.9-24.4,22.9c-0.4,8.6,3.8,16.8,11.1,21.4c-5,9-3.8,20.1,3,27.8c-8.2,9.1-8.2,22.9,0,32
		c-4.2,4.7-6.4,10.9-6.1,17.2c0.7,12.9,11.5,23,24.4,22.9H408c4.4,0,8-3.6,8-8V240C416,235.6,412.4,232,408,232z M288,360H168.5
		c-4.4,0.1-8.1-3.2-8.4-7.6c-0.2-4.4,3.2-8.2,7.6-8.4c0.1,0,0.3,0,0.4,0c4.4,0,8-3.6,8-8s-3.6-8-8-8s-8-3.6-8-8s3.6-8,8-8s8-3.6,8-8
		s-3.6-8-8-8s-8-3.6-8-8s3.6-8,8-8s8-3.6,8-8s-3.6-8-8-8h-8c-4.4,0-8-3.6-8-8c0-0.1,0-0.3,0-0.4c0.4-4.4,4.1-7.7,8.4-7.6H216
		c4.4,0,8-3.6,8-8v-37.7c0-10.1,8.2-18.3,18.3-18.3h5.7v24c0,0.7,0.1,1.3,0.2,1.9l0.4,1.7c4.7,18.8,20.2,32.9,39.3,35.8V360z
		 M336,360h-32V248h32V360z M400,360h-48V248h48V360z"/>
	<path class="st0" d="M229.5,127.5l0.4,16.5c0.1,4.4,3.8,7.9,8.2,7.8c0.7,0,1.4-0.1,2.1-0.3l15.8-4.7l15.8,4.7
		c4.2,1.3,8.7-1.1,10-5.4c0.2-0.7,0.3-1.4,0.3-2.1l0.4-16.5l9.4-13.6c2.5-3.6,1.6-8.6-2-11.1c-0.6-0.4-1.2-0.7-1.9-1l-15.6-5.5
		l-10-13.1c-2.7-3.5-7.7-4.2-11.2-1.5c-0.6,0.4-1.1,0.9-1.5,1.5l-10,13.1l-15.6,5.5c-4.2,1.5-6.4,6-4.9,10.2c0.2,0.7,0.6,1.3,1,1.9
		L229.5,127.5z M247.2,110.6c1.5-0.5,2.8-1.5,3.7-2.7l5.1-6.7l5.1,6.7c0.9,1.2,2.2,2.2,3.7,2.7l8,2.8l-4.8,6.9
		c-0.9,1.3-1.4,2.8-1.4,4.4l-0.2,8.4l-8.1-2.4c-1.5-0.4-3.1-0.4-4.6,0l-8.1,2.4l-0.2-8.4c0-1.6-0.5-3.1-1.4-4.4l-4.8-6.9
		L247.2,110.6z"/>
	<path class="st0" d="M139.2,175.8c0.1,4.4,3.8,7.9,8.2,7.8c0.7,0,1.4-0.1,2.1-0.3l15.8-4.7l15.8,4.7c4.2,1.3,8.7-1.1,10-5.4
		c0.2-0.7,0.3-1.4,0.3-2.1l0.4-16.5l9.4-13.6c2.5-3.6,1.6-8.6-2-11.1c-0.6-0.4-1.2-0.7-1.9-1l-15.6-5.5l-10-13.1
		c-2.7-3.5-7.7-4.2-11.2-1.5c-0.6,0.4-1.1,0.9-1.5,1.5l-10,13.1l-15.6,5.5c-4.2,1.5-6.4,6-4.9,10.2c0.2,0.7,0.6,1.3,1,1.9l9.4,13.6
		L139.2,175.8z M156.5,142.4c1.5-0.5,2.8-1.5,3.7-2.7l5.1-6.7l5.1,6.7c0.9,1.2,2.2,2.2,3.7,2.7l8,2.8l-4.8,6.9
		c-0.9,1.3-1.4,2.8-1.4,4.4l-0.2,8.4l-8.1-2.4c-1.5-0.4-3.1-0.4-4.6,0l-8.1,2.4l-0.2-8.4c0-1.6-0.5-3.1-1.4-4.4l-4.8-6.9
		L156.5,142.4z"/>
	<path class="st0" d="M320.1,159.3l0.4,16.5c0.1,4.4,3.8,7.9,8.2,7.8c0.7,0,1.4-0.1,2.1-0.3l15.8-4.7l15.8,4.7
		c4.2,1.3,8.7-1.1,10-5.4c0.2-0.7,0.3-1.4,0.3-2.1l0.4-16.5l9.4-13.6c2.5-3.6,1.6-8.6-2-11.1c-0.6-0.4-1.2-0.7-1.9-1l-15.6-5.5
		l-10-13.1c-2.7-3.5-7.7-4.2-11.2-1.5c-0.6,0.4-1.1,0.9-1.5,1.5l-10,13.1l-15.6,5.5c-4.2,1.5-6.4,6-4.9,10.2c0.2,0.7,0.6,1.3,1,1.9
		L320.1,159.3z M337.8,142.4c1.5-0.5,2.8-1.5,3.7-2.7l5.1-6.7l5.1,6.7c0.9,1.2,2.2,2.2,3.7,2.7l8,2.8l-4.8,6.9
		c-0.9,1.3-1.4,2.8-1.4,4.4l-0.2,8.4l-8.1-2.4c-1.5-0.4-3.1-0.4-4.6,0l-8.1,2.4l-0.2-8.4c0-1.6-0.5-3.1-1.4-4.4l-4.8-6.9
		L337.8,142.4z"/>
</g>
</svg>
