<?xml version="1.0" encoding="utf-8"?>
<!-- Generator: Adobe Illustrator 25.2.3, SVG Export Plug-In . SVG Version: 6.00 Build 0)  -->
<svg version="1.1" id="Layer_1" xmlns="http://www.w3.org/2000/svg" xmlns:xlink="http://www.w3.org/1999/xlink" x="0px" y="0px"
	 viewBox="0 0 53.8 53.8" style="enable-background:new 0 0 53.8 53.8;" xml:space="preserve">
<style type="text/css">
	.st0{fill:#B9ACA6;}
</style>
<path class="st0" d="M26.9,0C12,0,0,12,0,26.9c0,14.8,12,26.9,26.9,26.9c14.8,0,26.9-12,26.9-26.9C53.8,12,41.7,0,26.9,0z
	 M33.8,28.6h-4.3c0,6.8,0,15.2,0,15.2h-6.3c0,0,0-8.3,0-15.2h-3v-5.4h3v-3.5c0-2.5,1.2-6.4,6.4-6.4l4.7,0v5.2c0,0-2.8,0-3.4,0
	c-0.6,0-1.3,0.3-1.3,1.5v3.2h4.8L33.8,28.6z"/>
</svg>
