<?xml version="1.0" encoding="utf-8"?>
<!-- Generator: Adobe Illustrator 25.2.3, SVG Export Plug-In . SVG Version: 6.00 Build 0)  -->
<svg version="1.1" id="Layer_1" xmlns="http://www.w3.org/2000/svg" xmlns:xlink="http://www.w3.org/1999/xlink" x="0px" y="0px"
	 viewBox="0 0 841.89 595.28" style="enable-background:new 0 0 841.89 595.28;" xml:space="preserve">
<style type="text/css">
	.st0{fill:none;}
	.st1{fill:#232323;}
	.st2{font-family:'AppleSDGothicNeoSB00';}
	.st3{font-size:200px;}
	.st4{fill:#EA8000;}
	.st5{font-size:300px;}
</style>
<rect x="262.73" y="138" class="st0" width="770.97" height="373.19"/>
<text transform="matrix(1 0 0 1 262.7321 369.5969)"><tspan x="0" y="0" class="st1 st2 st3">Hollo</tspan><tspan x="448.6" y="0" class="st4 st2 st5">.</tspan></text>
<g>
	<g>
		<path class="st1" d="M139.49,139.76H77.73C34.87,139.76,0,174.63,0,217.49v137.62c0,42.86,34.87,77.73,77.73,77.73h61.77
			c42.86,0,77.73-34.87,77.73-77.73V217.49C217.22,174.63,182.35,139.76,139.49,139.76L139.49,139.76z M208.63,355.11
			c0,38.12-31.02,69.14-69.14,69.14H77.73c-38.12,0-69.14-31.02-69.14-69.14V217.49c0-38.12,31.02-69.14,69.14-69.14h61.77
			c38.12,0,69.14,31.02,69.14,69.14V355.11z"/>
		<path class="st1" d="M182.08,219.62c0,2.37,1.92,4.29,4.29,4.29c2.37,0,4.29-1.92,4.29-4.29c0-30.02-24.42-54.44-54.44-54.44
			H80.99c-30.02,0-54.44,24.42-54.44,54.44v133.35c0,11.62,3.61,22.71,10.44,32.07c0.84,1.15,2.15,1.76,3.47,1.76
			c0.88,0,1.76-0.27,2.53-0.83c1.91-1.4,2.33-4.08,0.94-6c-5.75-7.88-8.79-17.22-8.79-27.01v-19.23h62.32
			c5.43,0,10.53-2.11,14.37-5.95c2.22-2.22,5.16-3.44,8.3-3.44h22.38c17.11,0.38,30.77-15.67,29.09-32.53h10.51v61.15
			c0,25.29-20.57,45.86-45.86,45.86H80.99c-7.88,0-15.65-2.03-22.47-5.87c-2.07-1.16-4.68-0.43-5.85,1.63
			c-1.16,2.07-0.43,4.68,1.63,5.85c8.1,4.57,17.33,6.98,26.68,6.98h55.24c30.02,0,54.44-24.42,54.44-54.44V240.03
			c0-2.37-1.92-4.29-4.29-4.29c-2.37,0-4.29,1.92-4.29,4.29v43.21H154.7c-2.37,0-4.29,1.92-4.29,4.29s1.92,4.29,4.29,4.29h8.3
			c1.52,12.25-7.85,24.03-20.5,23.94h-22.38c-5.43,0-10.53,2.11-14.37,5.95c-2.22,2.22-5.16,3.44-8.3,3.44H35.13v-33.33H50.4
			l-1.81,3.15c-2.29,3.99-2.28,8.76,0.03,12.74c2.31,3.98,6.43,6.36,11.04,6.36h18.13c5.22,0,10.37-1.4,14.87-4.04l9.09-5.33
			c1.77-1.04,3.79-1.59,5.84-1.59h25.42c3.21,0,6.09-1.92,7.33-4.88c1.24-2.97,0.59-6.36-1.67-8.65l-14.89-15.12
			c-3.01-3.05-7.19-4.8-11.47-4.8h-8.2c-2.24,0-4.35-0.99-5.79-2.72l-4.42-5.33c-2.58-3.12-6.39-4.91-10.44-4.91h-5.09
			c-4.1-0.08-9.05,2.42-11.44,6.3l-11.6,20.23h-20.2v-63.62c0-25.29,20.57-45.86,45.86-45.86h55.24
			C161.51,173.77,182.08,194.34,182.08,219.62L182.08,219.62z M78.37,265.3h5.09c1.49,0,2.88,0.66,3.83,1.8l15.1,20.74
			c0.83,1.2,2.17,1.85,3.53,1.85c0.84,0,1.7-0.25,2.44-0.77c1.95-1.35,2.43-4.03,1.08-5.97l-3.26-4.69h6.13c2,0,3.95,0.82,5.35,2.24
			l13.83,14.04h-23.9c-3.58,0-7.1,0.96-10.19,2.77l-9.09,5.33c-3.19,1.87-6.83,2.86-10.53,2.86H59.66c-2.17,0-3.25-1.45-3.61-2.08
			c-0.36-0.63-1.09-2.28-0.01-4.16l12.07-21.05c2.76,2.03,6.73,3.64,12.12,3.64c2.37,0,4.29-1.92,4.29-4.29s-1.92-4.29-4.29-4.29
			c-4.26,0-6.59-1.43-7.79-2.6l1.85-3.23C75.23,266.09,76.74,265.3,78.37,265.3z"/>
		<path class="st1" d="M162.77,228.99c2.37,0,4.29-1.92,4.29-4.29s-1.92-4.29-4.29-4.29h-5.45c-0.45-1.88-1.2-3.66-2.18-5.27
			l3.86-3.86c1.68-1.68,1.68-4.39,0-6.07c-1.68-1.68-4.39-1.68-6.07,0l-3.86,3.86c-1.61-0.99-3.38-1.73-5.27-2.18v-5.45
			c0-2.37-1.92-4.29-4.29-4.29c-2.37,0-4.29,1.92-4.29,4.29v5.45c-1.88,0.45-3.66,1.2-5.27,2.18l-3.86-3.86
			c-1.68-1.68-4.39-1.68-6.07,0c-1.68,1.68-1.68,4.39,0,6.07l3.86,3.86c-0.99,1.61-1.73,3.38-2.18,5.27h-5.45
			c-2.37,0-4.29,1.92-4.29,4.29c0,2.37,1.92,4.29,4.29,4.29h5.45c0.45,1.88,1.2,3.66,2.18,5.27l-3.86,3.86
			c-1.68,1.68-1.68,4.39,0,6.07c0.84,0.84,1.94,1.26,3.04,1.26s2.2-0.42,3.04-1.26l3.86-3.86c1.61,0.99,3.38,1.73,5.27,2.18v5.45
			c0,2.37,1.92,4.29,4.29,4.29c2.37,0,4.29-1.92,4.29-4.29v-5.45c1.88-0.45,3.66-1.2,5.27-2.18l3.86,3.86
			c0.84,0.84,1.94,1.26,3.04,1.26c1.1,0,2.2-0.42,3.04-1.26c1.68-1.68,1.68-4.39,0-6.07l-3.86-3.86c0.99-1.61,1.73-3.38,2.18-5.27
			L162.77,228.99L162.77,228.99z M139.5,234.44c-5.37,0-9.74-4.37-9.74-9.74s4.37-9.74,9.74-9.74s9.74,4.37,9.74,9.74
			S144.87,234.44,139.5,234.44z"/>
		<path class="st1" d="M87.65,361.23c2.37,0,4.29-1.92,4.29-4.29s-1.92-4.29-4.29-4.29H59.12c-2.37,0-4.29,1.92-4.29,4.29
			s1.92,4.29,4.29,4.29H87.65z"/>
		<path class="st1" d="M121.01,376.7c2.37,0,4.29-1.92,4.29-4.29s-1.92-4.29-4.29-4.29h-17.41c-2.37,0-4.29,1.92-4.29,4.29
			s1.92,4.29,4.29,4.29H121.01z"/>
		<path class="st1" d="M136.68,376.7h4.35c2.37,0,4.29-1.92,4.29-4.29s-1.92-4.29-4.29-4.29h-4.35c-2.37,0-4.29,1.92-4.29,4.29
			S134.31,376.7,136.68,376.7z"/>
		<path class="st1" d="M136.68,347.21h17.41c2.37,0,4.29-1.92,4.29-4.29s-1.92-4.29-4.29-4.29h-17.41c-2.37,0-4.29,1.92-4.29,4.29
			S134.31,347.21,136.68,347.21z"/>
	</g>
</g>
</svg>
