<?xml version="1.0" encoding="utf-8"?>
<!-- Generator: Adobe Illustrator 25.2.3, SVG Export Plug-In . SVG Version: 6.00 Build 0)  -->
<svg version="1.1" id="Capa_1" xmlns="http://www.w3.org/2000/svg" xmlns:xlink="http://www.w3.org/1999/xlink" x="0px" y="0px"
	 viewBox="0 0 490.7 490.7" style="enable-background:new 0 0 490.7 490.7;" xml:space="preserve">
<style type="text/css">
	.st0{fill:#351E15;}
</style>
<g>
	<g>
		<path class="st0" d="M462.8,209c-7.6-5.6-17-12.5-18.2-17.1c-1.3-5,3.5-16.1,7.3-25c6.6-15.3,13.5-31.1,5.9-44.3
			c-7.7-13.4-25-15.3-41.7-17.2c-9.5-1.1-21.4-2.4-24.9-6c-3.6-3.5-4.9-15.4-6-24.9c-1.9-16.7-3.8-34-17.2-41.7
			c-11.6-6.7-28.8-0.9-44.3,5.9c-8.6,3.7-17.5,7.3-25,7.3c-4.6-1.2-11.5-10.6-17.1-18.2C272,14.8,261.1,0,245.3,0
			c-15.7,0-26.6,14.8-36.3,27.8c-5.6,7.6-12.5,17-19.1,18.5c-5.7,0-14.6-3.8-23.1-7.6c-15.5-6.7-32.7-12.6-44.2-5.9
			c-13.4,7.7-15.3,25-17.2,41.7c-1,9.5-2.4,21.4-5.9,24.9c-3.6,3.6-15.4,4.9-24.9,6c-16.7,1.9-34,3.8-41.7,17.2
			c-7.6,13.2-0.7,29,5.9,44.3c3.9,8.9,8.7,20,7.4,25c-1.2,4.6-10.7,11.6-18.2,17.1C14.8,218.7,0,229.6,0,245.3s14.8,26.7,27.9,36.3
			c7.6,5.6,17,12.5,18.2,17.1c1.3,5-3.5,16.1-7.3,25c-6.6,15.3-13.5,31.1-5.9,44.3c7.7,13.4,25,15.3,41.7,17.2
			c9.5,1.1,21.4,2.4,24.9,6c3.6,3.5,4.9,15.4,6,24.9c1.9,16.7,3.8,34,17.2,41.7c11.6,6.7,28.8,0.9,44.3-5.9c8.6-3.7,17.3-7.5,25-7.3
			c4.6,1.2,11.5,10.6,17.1,18.2c9.6,13.1,20.5,27.9,36.3,27.9c15.7,0,26.6-14.8,36.2-27.8c5.6-7.6,12.5-17,19.1-18.5
			c5.8,0,14.6,3.8,23.1,7.6c15.5,6.8,32.7,12.6,44.2,5.9c13.4-7.7,15.3-25,17.2-41.7c1-9.5,2.4-21.4,5.9-24.9
			c3.6-3.6,15.4-4.9,24.9-6c16.7-1.9,34-3.8,41.7-17.2c7.6-13.2,0.8-29-5.9-44.3c-3.9-8.9-8.7-20-7.3-25
			c1.2-4.6,10.7-11.6,18.2-17.1c13.1-9.6,27.9-20.5,27.9-36.3S475.9,218.7,462.8,209z M450.2,264.4c-11.3,8.3-23,17-26.2,28.8
			c-3.3,12.2,2.7,25.9,8.4,39.1c3.7,8.4,9.2,21.2,7,25.1c-2.3,4-16.3,5.6-25.6,6.7c-14.2,1.6-28.8,3.2-37.7,12.1
			c-8.8,8.8-10.5,23.5-12.1,37.7c-1,9.3-2.6,23.3-6.7,25.6c-0.6,0.4-1.6,0.4-2.4,0.4c-5.5,0-14.3-3.8-22.7-7.4
			c-13.2-5.7-27.7-11.5-39-8.4c-11.8,3.2-20.5,14.9-28.8,26.2c-5.6,7.6-14.1,19.2-19.1,19.2s-13.5-11.5-19.1-19.2
			c-8.3-11.3-17-23-28.8-26.2c-2.3-0.6-4.8-0.9-7.4-0.9c-10.2,0-21.1,4.7-31.6,9.3c-8.4,3.6-17.1,7.4-22.7,7.4
			c-0.7,0-1.8-0.1-2.4-0.4c-4.1-2.3-5.6-16.4-6.7-25.6c-1.6-14.2-3.2-28.8-12.1-37.7c-8.8-8.8-23.5-10.5-37.7-12.1
			c-9.3-1-23.3-2.6-25.6-6.7c-2.2-3.8,3.3-16.6,7-25.1c5.7-13.2,11.7-26.8,8.4-39.1c-3.2-11.8-14.9-20.4-26.2-28.8
			c-7.6-5.7-19.2-14.2-19.2-19.1s11.5-13.5,19.2-19.1c11.3-8.3,23-17,26.2-28.8c3.3-12.2-2.7-25.9-8.4-39.1
			c-3.6-8.4-9.2-21.2-7-25.1c2.3-4,16.4-5.6,25.6-6.6c14.2-1.6,28.8-3.2,37.7-12.1s10.5-23.5,12.1-37.7c1-9.3,2.6-23.3,6.7-25.6
			c0.6-0.4,1.6-0.4,2.4-0.4c5.5,0,14.3,3.8,22.7,7.5c13.2,5.7,27.7,11.5,39,8.4c11.8-3.2,20.5-14.9,28.8-26.2
			c5.6-7.6,14.1-19.2,19.1-19.2s13.5,11.5,19.1,19.2c8.3,11.3,17,23,28.8,26.2c11.3,3,25.8-2.6,39-8.4c8.4-3.6,17.1-7.4,22.7-7.4
			c0.7,0,1.8,0.1,2.4,0.4c4.1,2.3,5.6,16.4,6.7,25.6c1.6,14.2,3.2,28.8,12.1,37.7c8.8,8.8,23.5,10.5,37.7,12.1
			c9.3,1,23.3,2.6,25.6,6.7c2.2,3.8-3.3,16.6-7,25.1c-5.7,13.2-11.7,26.8-8.4,39.1c3.2,11.8,14.9,20.4,26.2,28.8
			c7.6,5.7,19.2,14.2,19.2,19.1S457.8,258.8,450.2,264.4z"/>
	</g>
</g>
<g>
	<g>
		<path class="st0" d="M181.3,192c-5.9,0-10.7,4.8-10.7,10.7V256l-44.8-59.7c-2.8-3.7-7.6-5.2-11.9-3.7c-4.4,1.5-7.3,5.5-7.3,10.1
			V288c0,5.9,4.8,10.7,10.7,10.7S128,293.9,128,288v-53.3l44.8,59.7c2,2.7,5.2,4.3,8.5,4.3c1.1,0,2.3-0.2,3.4-0.6
			c4.4-1.5,7.3-5.5,7.3-10.1v-85.3C192,196.8,187.2,192,181.3,192z"/>
	</g>
</g>
<g>
	<g>
		<path class="st0" d="M266.7,277.3h-32v-64h32c5.9,0,10.7-4.8,10.7-10.7s-4.8-10.7-10.7-10.7H224c-5.9,0-10.7,4.8-10.7,10.7V288
			c0,5.9,4.8,10.7,10.7,10.7h42.7c5.9,0,10.7-4.8,10.7-10.7S272.6,277.3,266.7,277.3z"/>
	</g>
</g>
<g>
	<g>
		<path class="st0" d="M266.7,234.7H224c-5.9,0-10.7,4.8-10.7,10.7S218.1,256,224,256h42.7c5.9,0,10.7-4.8,10.7-10.7
			S272.6,234.7,266.7,234.7z"/>
	</g>
</g>
<g>
	<g>
		<path class="st0" d="M397.2,192.3c-5.8-1.4-11.5,2-12.9,7.8l-12.4,49.8l-9.7-29.2c-2.9-8.7-17.3-8.7-20.2,0l-9.7,29.2l-12.4-49.8
			c-1.4-5.7-7.3-9.2-12.9-7.8c-5.7,1.4-9.2,7.2-7.8,12.9l21.3,85.3c1.2,4.6,5.2,7.9,9.9,8.1c5.4,0.2,9-2.8,10.5-7.3l11.2-33.6
			l11.2,33.6c1.5,4.4,5.5,7.3,10.1,7.3c0.1,0,0.3,0,0.4,0c4.7-0.2,8.8-3.5,9.9-8.1l21.3-85.3C406.4,199.5,403,193.7,397.2,192.3z"/>
	</g>
</g>
</svg>
