<?xml version="1.0" encoding="utf-8"?>
<!-- Generator: Adobe Illustrator 25.2.3, SVG Export Plug-In . SVG Version: 6.00 Build 0)  -->
<svg version="1.1" id="Capa_1" xmlns="http://www.w3.org/2000/svg" xmlns:xlink="http://www.w3.org/1999/xlink" x="0px" y="0px"
	 viewBox="0 0 512 512" style="enable-background:new 0 0 512 512;" xml:space="preserve">
<style type="text/css">
	.st0{fill:#351E15;}
</style>
<g>
	<path class="st0" d="M470.6,503.6l-7.5-61.7c-4-36.8-35.9-67.4-74.2-68.7c-0.3,0-72.7-0.1-72.7-0.1c0,0,0,0,0,0
		c-4.1,0-7.4-3.3-7.4-7.4v-29.8c33.7-16.5,57.7-52.3,57.1-92.7h1.9c20.4,0,36.9-16.6,36.9-36.9v-4.4c0-19.1-14.6-34.9-33.2-36.8
		c3.5-6.7,6.4-13.8,8.7-21.1c2.6-8.6,4.3-17.5,5-26.5h30.4c4.1,0,7.5-3.4,7.5-7.5s-3.4-7.5-7.5-7.5h-30.4V43.5
		c0-24-19.5-43.5-43.5-43.5H169.9c-24,0-43.5,19.5-43.5,43.5v59.1H96.4c-4.1,0-7.5,3.4-7.5,7.5s3.4,7.5,7.5,7.5h30.5
		c1.2,16.6,5.8,32.7,13.4,47.5c-18.7,1.8-33.3,17.6-33.3,36.8v4.4c0,20.4,16.6,36.9,36.9,36.9h1.9c-0.5,39.1,22.1,75.9,57.5,92.9
		v29.6c0,4.1-3.3,7.4-7.4,7.4l-69.3,0c-39.5-0.1-72.9,30-77.6,68.8l-7.5,61.7c-0.5,4.1,2.4,7.8,6.5,8.3c0.3,0,0.6,0.1,0.9,0.1
		c3.7,0,7-2.8,7.4-6.6l3.6-29.9c15.2-0.1,35-0.2,59-0.2v29.2c0,4.1,3.4,7.5,7.5,7.5s7.5-3.4,7.5-7.5v-29.2h52
		c-0.1,3.8,3,10.3,10,8.1l22.9-8.1h74.2l22.9,8.1c3.6,1.4,10.6-1.3,10-8.1h23.8c4.1,0,7.5-3.4,7.5-7.5s-3.4-7.5-7.5-7.5h-23.9
		c-1.1-14.3-9.1-27.5-21.6-34.9l-8.4-5l17.8,3.3c3,0.6,6,0.8,9.1,0.8c10.8,0,21.4-3.5,30.1-10l25.1-18.9v108.9
		c0,4.1,3.4,7.5,7.5,7.5s7.5-3.4,7.5-7.5v-28.7c17.7,0.1,59.1,0.2,59.1,0.2l3.6,29.4c0.5,3.8,3.7,6.6,7.4,6.6c0.3,0,0.6,0,0.9-0.1
		C468.2,511.4,471.1,507.7,470.6,503.6L470.6,503.6z M442.9,424.9c-14.4-0.1-31.3-0.1-49.9-0.2v-36.1
		C415.3,391.2,433.9,405.2,442.9,424.9z M259.2,443.5c1.8,6.2,4.9,11.9,9.1,16.7h-24.5c4.1-4.8,7.3-10.5,9.1-16.7l3.2-11
		L259.2,443.5z M186.1,460.3H134v-64.6l25.1,18.9c8.7,6.5,19.3,10,30.1,10c3,0,6.1-0.3,9.1-0.8l17.8-3.3l-8.4,5
		C195.3,432.8,187.2,445.9,186.1,460.3z M194.3,388.1l35.3,14.5l-34,6.3c-9.6,1.8-19.6-0.6-27.5-6.4L149,388.1L194.3,388.1z
		 M154.8,160.5c-7.3-13.2-11.7-27.8-13-42.9h228.3c-0.6,7.5-2,14.9-4.2,22.1c-2.2,7.3-5.2,14.3-8.9,20.9l-24.9-24
		c-6.2-6-15.8-6.7-22.8-1.8l-0.2,0.1c-31.9,22.2-74.6,22.1-106.4-0.2c-7-4.9-16.6-4.2-22.8,1.8L154.8,160.5z M389.8,201.9v4.4
		c0,12.1-9.8,21.9-21.9,21.9H366V180h1.9C379.9,180,389.8,189.8,389.8,201.9L389.8,201.9z M169.9,15h171.8
		c15.7,0,28.5,12.8,28.5,28.5v16.2h-38.7c-4.1,0-7.5,3.4-7.5,7.5s3.4,7.5,7.5,7.5h38.7v27.9H141.5V74.7h154.3c4.1,0,7.5-3.4,7.5-7.5
		s-3.4-7.5-7.5-7.5H141.5V43.5C141.5,27.8,154.2,15,169.9,15z M143.8,228.2c-12.1,0-21.9-9.8-21.9-21.9v-4.4
		c0-12.1,9.8-21.9,21.9-21.9h1.9v48.3L143.8,228.2z M160.7,244.4v-68.7l29.6-28.5c1-1,2.6-1.1,3.8-0.3c36.9,25.9,86.6,26,123.6,0.2
		l0.2-0.1c1.2-0.8,2.8-0.7,3.8,0.3l29.3,28.3v68.7c0,48-39,87-87,87c-1.9,0-15.9,0-17.4,0c-4.2-0.1-7.5,3.3-7.6,7.4
		c-0.1,4.1,3.3,7.5,7.4,7.6c15,0.2,32.7,0.4,47.5-4.5v23.9c0,5.3,1.8,10.1,4.9,14L256,397.3l-42.7-17.6c3.1-3.8,4.9-8.7,4.9-14
		v-33.6c0-2.1-0.6-6.1-4.7-7.8C181.4,310.6,160.7,279.2,160.7,244.4L160.7,244.4z M119,388.6v35.6c-20,0-36.4,0.1-49.6,0.1
		C78.5,405,97.2,391.2,119,388.6z M64.5,439.4c13.9-0.1,31.9-0.1,54.5-0.2v21.1c-23.1,0-42.3,0.1-57.2,0.2
		C61.7,460.4,64.2,440.8,64.5,439.4z M201,463.6c0-10.3,5.5-20,14.4-25.3l28.2-16.8l-5.1,17.9c-2.6,9.1-9.5,16.5-18.5,19.6
		l-18.9,6.7V463.6z M311,463.6v2.1l-18.9-6.7c-9-3.2-15.9-10.5-18.5-19.6l-5.1-17.9l28.2,16.8C305.5,443.6,311,453.2,311,463.6
		L311,463.6z M343.9,402.5c-7.8,5.9-17.8,8.2-27.5,6.4l-34-6.3l35.2-14.5c16,0,32.4,0,45.3,0L343.9,402.5z M393,460.8v-21.1
		c20.6,0.1,39.2,0.1,54.6,0.2c0.2,1.3,2.7,21.1,2.7,21.1S410.7,460.8,393,460.8L393,460.8z"/>
	<path class="st0" d="M196.7,204.7c-4.1,0-7.5,3.4-7.5,7.5V227c0,4.1,3.4,7.5,7.5,7.5s7.5-3.4,7.5-7.5v-14.9
		C204.2,208,200.8,204.7,196.7,204.7z"/>
	<path class="st0" d="M302.5,227.1h20.3c4.1,0,7.5-3.4,7.5-7.5s-3.4-7.5-7.5-7.5H317l1.7-2.4c2.4-3.4,1.6-8.1-1.7-10.5
		c-3.4-2.4-8.1-1.6-10.5,1.8l-10.2,14.2c-1.6,2.3-1.8,5.3-0.6,7.8S299.7,227.1,302.5,227.1L302.5,227.1z"/>
	<path class="st0" d="M238.8,292.3c4.6,4.6,10.7,7.1,17.2,7.1c8.6,0,16.7-4.6,21-12.1c2.1-3.6,0.9-8.2-2.7-10.2
		c-3.6-2.1-8.2-0.9-10.2,2.7c-1.7,2.9-4.7,4.6-8,4.6c-2.5,0-4.8-1-6.5-2.7c-0.6-0.6-1.1-1.2-1.5-1.9c-2.1-3.6-6.6-4.8-10.2-2.8
		c-3.6,2.1-4.8,6.6-2.8,10.2C236,289.1,237.3,290.8,238.8,292.3L238.8,292.3z"/>
	<path class="st0" d="M256,265L256,265c11.2,0,20.3-9.1,20.3-20.3v-30.2c0-11.2-9.1-20.3-20.3-20.3c-11.2,0-20.3,9.1-20.3,20.3v30.2
		C235.7,255.9,244.8,265,256,265L256,265z M250.7,214.5c0-2.9,2.4-5.3,5.3-5.3c2.9,0,5.3,2.4,5.3,5.3v30.2c0,2.9-2.4,5.3-5.3,5.3h0
		c-2.9,0-5.3-2.4-5.3-5.3L250.7,214.5L250.7,214.5z"/>
</g>
</svg>
