<?xml version="1.0" encoding="utf-8"?>
<!-- Generator: Adobe Illustrator 25.2.3, SVG Export Plug-In . SVG Version: 6.00 Build 0)  -->
<svg version="1.1" id="Layer_1" xmlns="http://www.w3.org/2000/svg" xmlns:xlink="http://www.w3.org/1999/xlink" x="0px" y="0px"
	 viewBox="0 0 512 512" style="enable-background:new 0 0 512 512;" xml:space="preserve">
<style type="text/css">
	.st0{fill:#351E15;}
</style>
<path class="st0" d="M298.7,165c-32.1,24.7-38.2,70.9-13.5,103c11.9,15.5,29.2,25.5,48.7,28.1c3.2,0.4,6.5,0.6,9.7,0.6
	c16.1,0,31.6-5.3,44.6-15.2c15.5-11.9,25.5-29.2,28.1-48.7c2.5-19.5-2.6-38.8-14.6-54.3C377,146.4,330.8,140.3,298.7,165L298.7,165z
	 M401.4,230.9c-2,15.5-10,29.3-22.3,38.8c-25.6,19.7-62.4,14.8-82-10.7c-19.7-25.6-14.8-62.4,10.7-82c10.6-8.1,23.1-12.1,35.6-12.1
	c17.6,0,34.9,7.9,46.4,22.8C399.3,200,403.4,215.3,401.4,230.9z"/>
<path class="st0" d="M325.6,200c6.2-4.8,13.9-6.8,21.7-5.8c7.8,1,14.7,5,19.5,11.2c6,7.8,17.7-1.5,11.9-9.1
	c-14.9-19.4-42.8-23.1-62.2-8.1C308.7,194,317.9,205.9,325.6,200L325.6,200z"/>
<path class="st0" d="M511.8,145.6v-0.4c0-36.9-30-67-67-67H132.9c-9.7,0-9.7,15,0,15h311.9c28.7,0,52,23.3,52,52v0.4
	c0,28.7-23.3,52-52,52h-2.1c-3.4-13.2-9.5-25.7-18-36.8c-34.5-44.9-99-53.3-143.9-18.8c-18.8,14.5-31.2,34.2-36.7,55.6H67
	c-28.7,0-52-23.3-52-52v-0.4c0-28.7,23.3-52,52-52h19c9.7,0,9.7-15,0-15H67c-36.9,0-67,30-67,67v0.4c0,36.9,30,67,67,67h174.5
	c-2.7,25.3,4,51.6,20.6,73.3c16.7,21.7,40.9,35.6,68,39.2c4.5,0.6,9,0.9,13.5,0.9c14.7,0,29.2-3.2,42.5-9.3l13.1,17.1
	c-9.3,7.3-11,20.7-3.8,30.1c4.2,5.5,10.6,8.4,17.1,8.4c2.9,0,5.8-0.6,8.5-1.7l40.3,52.6c21.9,28.5,66.8-5.3,44.6-34.2l-40.3-52.6
	c2.4-3,3.9-6.6,4.5-10.5c0.7-5.7-0.8-11.4-4.3-15.9c-7.2-9.4-20.6-11.2-30.1-4.1l-13.2-17.1c5.9-7.1,10.8-15,14.5-23.4
	c3.9-8.8-9.8-14.9-13.7-6.1c-5.9,13.2-15.1,24.8-26.6,33.7c-18.6,14.3-41.5,20.4-64.7,17.4c-23.2-3-43.8-14.9-58.1-33.5
	c-29.4-38.3-22.2-93.4,16.1-122.8s93.4-22.2,122.8,16.1c11,14.4,17.3,31.5,18.1,49.5c0.4,9.7,15.4,9,15-0.6
	c-0.1-2.1-0.3-4.2-0.5-6.3C482.1,212.2,511.8,182.3,511.8,145.6z M496.7,407.6c-1.5,11.2-16.5,15.3-23.4,6.3l-39.9-52.1l20.8-16
	l39.9,52C496.2,400.7,497.1,404.1,496.7,407.6C496.2,411.1,497.1,404.1,496.7,407.6L496.7,407.6z M454,318.9c2.2,2.8,1.6,7-1.2,9.2
	l-36.2,27.8c-2.9,2.2-7,1.7-9.2-1.2s-1.7-7,1.2-9.2l36.2-27.8C447.6,315.4,451.7,316,454,318.9z M406,304.6c2.1-1.6,4.2-3.4,6.2-5.2
	l11.2,14.5l-12.7,9.8l-11.2-14.5C401.6,307.8,403.8,306.3,406,304.6L406,304.6z"/>
<path class="st0" d="M66.5,146.4c0,4.1,3.4,7.5,7.5,7.5h138.9c9.7,0,9.7-15,0-15H74C69.8,138.9,66.5,142.3,66.5,146.4L66.5,146.4z"
	/>
</svg>
